<?xml version="1.0" encoding="UTF-8" standalone="no"?>
<!DOCTYPE svg PUBLIC "-//W3C//DTD SVG 1.1//EN" "http://www.w3.org/Graphics/SVG/1.1/DTD/svg11.dtd">
<svg width="100%" height="100%" viewBox="0 0 386 44" version="1.1" xmlns="http://www.w3.org/2000/svg" xmlns:xlink="http://www.w3.org/1999/xlink" xml:space="preserve" xmlns:serif="http://www.serif.com/" style="fill-rule:evenodd;clip-rule:evenodd;stroke-linejoin:round;stroke-miterlimit:2;">
    <g transform="matrix(1,0,0,1,-50.2116,-360.043)">
        <g transform="matrix(0.75296,0,0,0.75296,-39.81,77.1742)">
            <path d="M119.557,375.676L137.453,375.676C140.995,375.676 143.637,375.823 145.377,376.118C147.118,376.414 148.675,377.03 150.05,377.966C151.424,378.903 152.569,380.15 153.485,381.707C154.401,383.264 154.859,385.01 154.859,386.944C154.859,389.041 154.295,390.965 153.165,392.716C152.035,394.467 150.503,395.78 148.569,396.656C151.297,397.45 153.394,398.804 154.859,400.717C156.325,402.631 157.058,404.881 157.058,407.466C157.058,409.502 156.585,411.482 155.638,413.406C154.692,415.33 153.399,416.867 151.76,418.017C150.121,419.168 148.1,419.875 145.698,420.14C144.191,420.303 140.557,420.404 134.796,420.445L119.557,420.445L119.557,375.676ZM128.596,383.127L128.596,393.48L134.521,393.48C138.043,393.48 140.232,393.429 141.087,393.327C142.634,393.144 143.85,392.609 144.736,391.724C145.622,390.838 146.064,389.672 146.064,388.227C146.064,386.843 145.683,385.718 144.919,384.853C144.156,383.987 143.021,383.463 141.514,383.28C140.618,383.178 138.043,383.127 133.788,383.127L128.596,383.127ZM128.596,400.931L128.596,412.902L136.964,412.902C140.221,412.902 142.288,412.811 143.163,412.627C144.507,412.383 145.601,411.787 146.446,410.841C147.291,409.894 147.713,408.627 147.713,407.039C147.713,405.695 147.388,404.555 146.736,403.618C146.085,402.682 145.143,402 143.911,401.572C142.68,401.145 140.008,400.931 135.895,400.931L128.596,400.931Z" style="fill:url(#_Linear1);fill-rule:nonzero;"/>
            <path d="M160.57,388.013L169.701,388.013L177.458,411.039L185.032,388.013L193.918,388.013L182.466,419.224L180.42,424.873C179.667,426.767 178.949,428.212 178.267,429.21C177.585,430.207 176.801,431.017 175.916,431.638C175.03,432.258 173.941,432.742 172.648,433.088C171.355,433.434 169.895,433.607 168.266,433.607C166.617,433.607 164.998,433.434 163.41,433.088L162.647,426.37C163.99,426.634 165.202,426.767 166.281,426.767C168.276,426.767 169.752,426.181 170.709,425.011C171.666,423.84 172.399,422.349 172.908,420.537L160.57,388.013Z" style="fill:url(#_Linear2);fill-rule:nonzero;"/>
            <path d="M216.883,420.445L216.883,375.676L225.923,375.676L225.923,393.296L243.635,393.296L243.635,375.676L252.674,375.676L252.674,420.445L243.635,420.445L243.635,400.87L225.923,400.87L225.923,420.445L216.883,420.445Z" style="fill:url(#_Linear3);fill-rule:nonzero;"/>
            <path d="M280.739,410.123L289.29,411.558C288.191,414.694 286.455,417.081 284.083,418.72C281.711,420.359 278.744,421.178 275.181,421.178C269.542,421.178 265.368,419.336 262.66,415.651C260.523,412.699 259.454,408.973 259.454,404.474C259.454,399.099 260.859,394.889 263.668,391.846C266.478,388.802 270.03,387.28 274.326,387.28C279.151,387.28 282.958,388.873 285.748,392.06C288.537,395.246 289.87,400.127 289.748,406.703L268.249,406.703C268.31,409.248 269.002,411.228 270.326,412.643C271.649,414.058 273.298,414.765 275.273,414.765C276.617,414.765 277.746,414.399 278.663,413.666C279.579,412.933 280.271,411.752 280.739,410.123ZM281.228,401.45C281.167,398.966 280.525,397.078 279.304,395.785C278.082,394.492 276.596,393.846 274.845,393.846C272.972,393.846 271.425,394.528 270.203,395.892C268.982,397.256 268.381,399.109 268.402,401.45L281.228,401.45Z" style="fill:url(#_Linear4);fill-rule:nonzero;"/>
            <path d="M326.242,420.445L317.66,420.445L317.66,403.893C317.66,400.392 317.477,398.127 317.111,397.098C316.744,396.07 316.149,395.271 315.324,394.701C314.5,394.131 313.507,393.846 312.347,393.846C310.86,393.846 309.527,394.253 308.346,395.068C307.165,395.882 306.356,396.961 305.918,398.305C305.481,399.648 305.262,402.132 305.262,405.756L305.262,420.445L296.68,420.445L296.68,388.013L304.651,388.013L304.651,392.777C307.481,389.113 311.044,387.28 315.339,387.28C317.233,387.28 318.963,387.621 320.531,388.303C322.099,388.985 323.285,389.856 324.089,390.914C324.893,391.973 325.453,393.174 325.768,394.518C326.084,395.862 326.242,397.786 326.242,400.29L326.242,420.445Z" style="fill:url(#_Linear5);fill-rule:nonzero;"/>
            <path d="M343.16,420.445L334.579,420.445L334.579,388.013L342.549,388.013L342.549,392.625C343.913,390.446 345.14,389.011 346.229,388.319C347.318,387.626 348.555,387.28 349.94,387.28C351.894,387.28 353.777,387.82 355.589,388.899L352.932,396.381C351.487,395.444 350.143,394.976 348.901,394.976C347.7,394.976 346.682,395.307 345.847,395.969C345.013,396.63 344.356,397.826 343.878,399.557C343.399,401.287 343.16,404.911 343.16,410.429L343.16,420.445Z" style="fill:url(#_Linear6);fill-rule:nonzero;"/>
            <path d="M355.223,388.013L364.354,388.013L372.111,411.039L379.684,388.013L388.571,388.013L377.119,419.224L375.073,424.873C374.319,426.767 373.602,428.212 372.92,429.21C372.238,430.207 371.454,431.017 370.568,431.638C369.683,432.258 368.594,432.742 367.301,433.088C366.008,433.434 364.547,433.607 362.918,433.607C361.269,433.607 359.651,433.434 358.063,433.088L357.299,426.37C358.643,426.634 359.854,426.767 360.933,426.767C362.929,426.767 364.405,426.181 365.362,425.011C366.318,423.84 367.051,422.349 367.56,420.537L355.223,388.013Z" style="fill:url(#_Linear7);fill-rule:nonzero;"/>
            <path d="M422.927,420.445L406.924,375.676L416.727,375.676L428.057,408.81L439.02,375.676L448.61,375.676L432.577,420.445L422.927,420.445Z" style="fill:url(#_Linear8);fill-rule:nonzero;"/>
            <path d="M452.03,383.616L452.03,375.676L460.611,375.676L460.611,383.616L452.03,383.616ZM452.03,420.445L452.03,388.013L460.611,388.013L460.611,420.445L452.03,420.445Z" style="fill:url(#_Linear9);fill-rule:nonzero;"/>
            <path d="M498.906,420.445L490.325,420.445L490.325,403.893C490.325,400.392 490.142,398.127 489.775,397.098C489.409,396.07 488.813,395.271 487.989,394.701C487.164,394.131 486.172,393.846 485.011,393.846C483.525,393.846 482.192,394.253 481.011,395.068C479.83,395.882 479.021,396.961 478.583,398.305C478.145,399.648 477.927,402.132 477.927,405.756L477.927,420.445L469.345,420.445L469.345,388.013L477.316,388.013L477.316,392.777C480.146,389.113 483.708,387.28 488.004,387.28C489.898,387.28 491.628,387.621 493.196,388.303C494.763,388.985 495.949,389.856 496.754,390.914C497.558,391.973 498.118,393.174 498.433,394.518C498.749,395.862 498.906,397.786 498.906,400.29L498.906,420.445Z" style="fill:url(#_Linear10);fill-rule:nonzero;"/>
            <path d="M535.889,397.602L527.429,399.129C527.144,397.439 526.498,396.167 525.49,395.312C524.482,394.457 523.174,394.029 521.566,394.029C519.428,394.029 517.723,394.767 516.451,396.243C515.178,397.719 514.542,400.188 514.542,403.649C514.542,407.497 515.189,410.215 516.481,411.803C517.774,413.391 519.51,414.185 521.688,414.185C523.317,414.185 524.65,413.722 525.689,412.795C526.727,411.869 527.46,410.276 527.888,408.016L536.316,409.451C535.441,413.319 533.761,416.241 531.277,418.216C528.794,420.191 525.465,421.178 521.291,421.178C516.548,421.178 512.766,419.682 509.946,416.689C507.126,413.696 505.717,409.553 505.717,404.26C505.717,398.905 507.132,394.737 509.961,391.754C512.791,388.772 516.619,387.28 521.444,387.28C525.394,387.28 528.534,388.13 530.865,389.83C533.196,391.53 534.871,394.121 535.889,397.602Z" style="fill:url(#_Linear11);fill-rule:nonzero;"/>
            <path d="M561.175,410.123L569.725,411.558C568.626,414.694 566.89,417.081 564.518,418.72C562.147,420.359 559.179,421.178 555.617,421.178C549.977,421.178 545.803,419.336 543.096,415.651C540.958,412.699 539.889,408.973 539.889,404.474C539.889,399.099 541.294,394.889 544.103,391.846C546.913,388.802 550.466,387.28 554.761,387.28C559.587,387.28 563.394,388.873 566.183,392.06C568.972,395.246 570.306,400.127 570.183,406.703L548.684,406.703C548.745,409.248 549.438,411.228 550.761,412.643C552.084,414.058 553.733,414.765 555.708,414.765C557.052,414.765 558.182,414.399 559.098,413.666C560.014,412.933 560.706,411.752 561.175,410.123ZM561.663,401.45C561.602,398.966 560.961,397.078 559.739,395.785C558.518,394.492 557.031,393.846 555.281,393.846C553.408,393.846 551.86,394.528 550.639,395.892C549.417,397.256 548.817,399.109 548.837,401.45L561.663,401.45Z" style="fill:url(#_Linear12);fill-rule:nonzero;"/>
            <path d="M606.677,420.445L598.096,420.445L598.096,403.893C598.096,400.392 597.912,398.127 597.546,397.098C597.179,396.07 596.584,395.271 595.759,394.701C594.935,394.131 593.942,393.846 592.782,393.846C591.296,393.846 589.962,394.253 588.781,395.068C587.601,395.882 586.791,396.961 586.354,398.305C585.916,399.648 585.697,402.132 585.697,405.756L585.697,420.445L577.116,420.445L577.116,388.013L585.086,388.013L585.086,392.777C587.916,389.113 591.479,387.28 595.775,387.28C597.668,387.28 599.399,387.621 600.966,388.303C602.534,388.985 603.72,389.856 604.524,390.914C605.328,391.973 605.888,393.174 606.204,394.518C606.519,395.862 606.677,397.786 606.677,400.29L606.677,420.445Z" style="fill:url(#_Linear13);fill-rule:nonzero;"/>
            <path d="M630.253,388.013L630.253,394.854L624.389,394.854L624.389,407.924C624.389,410.571 624.445,412.113 624.557,412.551C624.669,412.989 624.924,413.35 625.321,413.635C625.718,413.92 626.201,414.063 626.771,414.063C627.565,414.063 628.716,413.788 630.222,413.238L630.955,419.895C628.96,420.751 626.7,421.178 624.175,421.178C622.628,421.178 621.234,420.918 619.992,420.399C618.75,419.88 617.839,419.208 617.259,418.384C616.678,417.559 616.276,416.445 616.052,415.04C615.869,414.042 615.777,412.027 615.777,408.993L615.777,394.854L611.838,394.854L611.838,388.013L615.777,388.013L615.777,381.57L624.389,376.561L624.389,388.013L630.253,388.013Z" style="fill:url(#_Linear14);fill-rule:nonzero;"/>
        </g>
    </g>
    <defs>
        <linearGradient id="_Linear1" x1="0" y1="0" x2="1" y2="0" gradientUnits="userSpaceOnUse" gradientTransform="matrix(511.398,0,0,57.9316,119.557,404.641)"><stop offset="0" style="stop-color:rgb(254,99,74);stop-opacity:1"/><stop offset="1" style="stop-color:rgb(251,192,43);stop-opacity:1"/></linearGradient>
        <linearGradient id="_Linear2" x1="0" y1="0" x2="1" y2="0" gradientUnits="userSpaceOnUse" gradientTransform="matrix(511.398,0,0,57.9316,119.557,404.641)"><stop offset="0" style="stop-color:rgb(254,99,74);stop-opacity:1"/><stop offset="1" style="stop-color:rgb(251,192,43);stop-opacity:1"/></linearGradient>
        <linearGradient id="_Linear3" x1="0" y1="0" x2="1" y2="0" gradientUnits="userSpaceOnUse" gradientTransform="matrix(511.398,0,0,57.9316,119.557,404.641)"><stop offset="0" style="stop-color:rgb(254,99,74);stop-opacity:1"/><stop offset="1" style="stop-color:rgb(251,192,43);stop-opacity:1"/></linearGradient>
        <linearGradient id="_Linear4" x1="0" y1="0" x2="1" y2="0" gradientUnits="userSpaceOnUse" gradientTransform="matrix(511.398,0,0,57.9316,119.557,404.641)"><stop offset="0" style="stop-color:rgb(254,99,74);stop-opacity:1"/><stop offset="1" style="stop-color:rgb(251,192,43);stop-opacity:1"/></linearGradient>
        <linearGradient id="_Linear5" x1="0" y1="0" x2="1" y2="0" gradientUnits="userSpaceOnUse" gradientTransform="matrix(511.398,0,0,57.9316,119.557,404.641)"><stop offset="0" style="stop-color:rgb(254,99,74);stop-opacity:1"/><stop offset="1" style="stop-color:rgb(251,192,43);stop-opacity:1"/></linearGradient>
        <linearGradient id="_Linear6" x1="0" y1="0" x2="1" y2="0" gradientUnits="userSpaceOnUse" gradientTransform="matrix(511.398,0,0,57.9316,119.557,404.641)"><stop offset="0" style="stop-color:rgb(254,99,74);stop-opacity:1"/><stop offset="1" style="stop-color:rgb(251,192,43);stop-opacity:1"/></linearGradient>
        <linearGradient id="_Linear7" x1="0" y1="0" x2="1" y2="0" gradientUnits="userSpaceOnUse" gradientTransform="matrix(511.398,0,0,57.9316,119.557,404.641)"><stop offset="0" style="stop-color:rgb(254,99,74);stop-opacity:1"/><stop offset="1" style="stop-color:rgb(251,192,43);stop-opacity:1"/></linearGradient>
        <linearGradient id="_Linear8" x1="0" y1="0" x2="1" y2="0" gradientUnits="userSpaceOnUse" gradientTransform="matrix(511.398,0,0,57.9316,119.557,404.641)"><stop offset="0" style="stop-color:rgb(254,99,74);stop-opacity:1"/><stop offset="1" style="stop-color:rgb(251,192,43);stop-opacity:1"/></linearGradient>
        <linearGradient id="_Linear9" x1="0" y1="0" x2="1" y2="0" gradientUnits="userSpaceOnUse" gradientTransform="matrix(511.398,0,0,57.9316,119.557,404.641)"><stop offset="0" style="stop-color:rgb(254,99,74);stop-opacity:1"/><stop offset="1" style="stop-color:rgb(251,192,43);stop-opacity:1"/></linearGradient>
        <linearGradient id="_Linear10" x1="0" y1="0" x2="1" y2="0" gradientUnits="userSpaceOnUse" gradientTransform="matrix(511.398,0,0,57.9316,119.557,404.641)"><stop offset="0" style="stop-color:rgb(254,99,74);stop-opacity:1"/><stop offset="1" style="stop-color:rgb(251,192,43);stop-opacity:1"/></linearGradient>
        <linearGradient id="_Linear11" x1="0" y1="0" x2="1" y2="0" gradientUnits="userSpaceOnUse" gradientTransform="matrix(511.398,0,0,57.9316,119.557,404.641)"><stop offset="0" style="stop-color:rgb(254,99,74);stop-opacity:1"/><stop offset="1" style="stop-color:rgb(251,192,43);stop-opacity:1"/></linearGradient>
        <linearGradient id="_Linear12" x1="0" y1="0" x2="1" y2="0" gradientUnits="userSpaceOnUse" gradientTransform="matrix(511.398,0,0,57.9316,119.557,404.641)"><stop offset="0" style="stop-color:rgb(254,99,74);stop-opacity:1"/><stop offset="1" style="stop-color:rgb(251,192,43);stop-opacity:1"/></linearGradient>
        <linearGradient id="_Linear13" x1="0" y1="0" x2="1" y2="0" gradientUnits="userSpaceOnUse" gradientTransform="matrix(511.398,0,0,57.9316,119.557,404.641)"><stop offset="0" style="stop-color:rgb(254,99,74);stop-opacity:1"/><stop offset="1" style="stop-color:rgb(251,192,43);stop-opacity:1"/></linearGradient>
        <linearGradient id="_Linear14" x1="0" y1="0" x2="1" y2="0" gradientUnits="userSpaceOnUse" gradientTransform="matrix(511.398,0,0,57.9316,119.557,404.641)"><stop offset="0" style="stop-color:rgb(254,99,74);stop-opacity:1"/><stop offset="1" style="stop-color:rgb(251,192,43);stop-opacity:1"/></linearGradient>
    </defs>
</svg>
