<?xml version="1.0" encoding="UTF-8" standalone="no"?>
<!DOCTYPE svg PUBLIC "-//W3C//DTD SVG 1.1//EN" "http://www.w3.org/Graphics/SVG/1.1/DTD/svg11.dtd">
<svg width="100%" height="100%" viewBox="0 0 610 191" version="1.1" xmlns="http://www.w3.org/2000/svg" xmlns:xlink="http://www.w3.org/1999/xlink" xml:space="preserve" xmlns:serif="http://www.serif.com/" style="fill-rule:evenodd;clip-rule:evenodd;stroke-linejoin:round;stroke-miterlimit:2;">
    <g transform="matrix(1,0,0,1,-635.73,-75.3842)">
        <g>
            <g transform="matrix(1,0,0,1,537.19,-67.3975)">
                <g transform="matrix(164.365,0,0,164.365,102.146,268.839)">
                    <path d="M0.466,-0.542L0.622,-0L0.654,-0L0.816,-0.531C0.842,-0.615 0.859,-0.704 0.97,-0.699L0.97,-0.732L0.71,-0.732L0.71,-0.699C0.739,-0.696 0.796,-0.703 0.796,-0.65C0.796,-0.619 0.781,-0.571 0.772,-0.539L0.669,-0.187L0.549,-0.615C0.546,-0.629 0.542,-0.644 0.542,-0.658C0.542,-0.703 0.597,-0.699 0.63,-0.699L0.63,-0.732L0.343,-0.732L0.343,-0.699C0.402,-0.704 0.431,-0.662 0.444,-0.61L0.32,-0.187L0.206,-0.594C0.2,-0.611 0.19,-0.643 0.19,-0.662C0.19,-0.7 0.236,-0.697 0.264,-0.699L0.264,-0.732L-0.022,-0.732L-0.022,-0.699C0.078,-0.705 0.094,-0.64 0.116,-0.56L0.274,-0L0.306,-0L0.466,-0.542Z" style="fill:white;fill-rule:nonzero;"/>
                </g>
                <g transform="matrix(164.365,0,0,164.365,244.815,268.839)">
                    <path d="M0.472,-0.275C0.472,-0.393 0.386,-0.5 0.261,-0.5C0.121,-0.5 0.032,-0.368 0.032,-0.24C0.032,-0.103 0.134,0.011 0.274,0.011C0.356,0.011 0.426,-0.038 0.468,-0.107L0.451,-0.123C0.412,-0.069 0.354,-0.032 0.287,-0.032C0.162,-0.032 0.133,-0.177 0.133,-0.275L0.472,-0.275ZM0.138,-0.313C0.14,-0.381 0.175,-0.467 0.26,-0.467C0.347,-0.467 0.377,-0.382 0.371,-0.313L0.138,-0.313Z" style="fill:white;fill-rule:nonzero;"/>
                </g>
                <g transform="matrix(164.365,0,0,164.365,326.997,268.839)">
                    <path d="M0.181,-0.393C0.206,-0.42 0.239,-0.447 0.278,-0.447C0.376,-0.447 0.416,-0.333 0.416,-0.253C0.416,-0.173 0.381,-0.042 0.281,-0.042C0.24,-0.042 0.21,-0.069 0.181,-0.092L0.181,-0.393ZM0.173,-0.063C0.207,-0.025 0.253,0.011 0.307,0.011C0.44,0.011 0.511,-0.142 0.511,-0.257C0.511,-0.366 0.445,-0.5 0.32,-0.5C0.269,-0.5 0.215,-0.469 0.18,-0.434L0.18,-0.767L0.007,-0.71L0.007,-0.681C0.078,-0.676 0.092,-0.68 0.092,-0.593L0.092,0.005L0.104,0.005L0.173,-0.063Z" style="fill:white;fill-rule:nonzero;"/>
                </g>
                <g transform="matrix(164.365,0,0,164.365,417.891,268.839)">
                    <path d="M0.082,-0.456L0.082,-0.132C0.082,-0.061 0.095,0.011 0.183,0.011C0.244,0.011 0.294,-0.029 0.332,-0.072L0.315,-0.092C0.29,-0.067 0.266,-0.042 0.227,-0.042C0.165,-0.042 0.17,-0.108 0.17,-0.153L0.17,-0.456L0.31,-0.456L0.31,-0.489L0.17,-0.489L0.17,-0.664L0.137,-0.664C0.128,-0.588 0.083,-0.511 0.009,-0.48L0.009,-0.456L0.082,-0.456Z" style="fill:white;fill-rule:nonzero;"/>
                </g>
                <g transform="matrix(164.365,0,0,164.365,468.68,268.839)">
                    <path d="M0.258,0.011C0.391,0.011 0.486,-0.109 0.486,-0.237C0.486,-0.364 0.403,-0.5 0.264,-0.5C0.123,-0.5 0.037,-0.366 0.037,-0.236C0.037,-0.113 0.13,0.011 0.258,0.011ZM0.258,-0.022C0.161,-0.022 0.138,-0.187 0.138,-0.258C0.138,-0.335 0.163,-0.467 0.264,-0.467C0.362,-0.467 0.385,-0.329 0.385,-0.256C0.385,-0.179 0.362,-0.022 0.258,-0.022Z" style="fill:white;fill-rule:nonzero;"/>
                </g>
                <g transform="matrix(164.365,0,0,164.365,555.3,268.839)">
                    <path d="M0.262,-0.125L0.165,-0.383C0.159,-0.397 0.152,-0.416 0.152,-0.431C0.152,-0.459 0.191,-0.46 0.212,-0.46L0.212,-0.489L-0.014,-0.489L-0.014,-0.46C0.045,-0.46 0.055,-0.415 0.074,-0.369L0.217,-0.008C0.203,0.022 0.186,0.109 0.145,0.109C0.12,0.109 0.109,0.07 0.07,0.07C0.041,0.07 0.017,0.091 0.017,0.121C0.017,0.163 0.058,0.187 0.095,0.187C0.184,0.187 0.219,0.105 0.246,0.033L0.39,-0.325C0.403,-0.36 0.427,-0.426 0.456,-0.447C0.47,-0.459 0.49,-0.459 0.507,-0.46L0.507,-0.489L0.294,-0.489L0.294,-0.46C0.323,-0.46 0.368,-0.456 0.368,-0.418C0.368,-0.398 0.354,-0.361 0.347,-0.343L0.262,-0.125Z" style="fill:white;fill-rule:nonzero;"/>
                </g>
                <g transform="matrix(164.365,0,0,164.365,637.483,268.839)">
                    <path d="M0.348,-0.507C0.336,-0.493 0.322,-0.484 0.303,-0.484C0.275,-0.484 0.24,-0.5 0.204,-0.5C0.125,-0.5 0.047,-0.443 0.047,-0.358C0.047,-0.177 0.358,-0.233 0.358,-0.104C0.358,-0.057 0.316,-0.022 0.27,-0.022C0.195,-0.022 0.101,-0.107 0.063,-0.17L0.041,-0.159L0.103,0.011C0.12,-0.003 0.14,-0.012 0.161,-0.012C0.174,-0.012 0.186,-0.007 0.198,-0.003C0.221,0.004 0.239,0.011 0.264,0.011C0.344,0.011 0.427,-0.054 0.427,-0.14C0.427,-0.323 0.113,-0.277 0.113,-0.399C0.113,-0.44 0.153,-0.467 0.192,-0.467C0.273,-0.467 0.333,-0.394 0.382,-0.331L0.406,-0.344L0.348,-0.507Z" style="fill:white;fill-rule:nonzero;"/>
                </g>
            </g>
            <g transform="matrix(0.778286,0,0,0.778286,123.392,-13.8139)">
                <path d="M672.927,337.681L672.927,330.688C672.927,328.188 673.361,326.956 676.188,326.956C679.485,326.956 682.746,328.369 682.746,332.137C682.746,336.92 678.978,337.681 675.028,337.681L672.927,337.681ZM672.927,338.871L674.919,338.871C679.412,338.871 683.905,339.813 683.905,345.248C683.905,349.704 680.282,351.081 676.369,351.081C673.543,351.081 672.927,349.994 672.927,347.458L672.927,338.871ZM677.528,352.271C682.057,352.271 688.065,350.718 688.065,345.103C688.065,340.357 682.854,338.51 678.832,338.402L678.832,338.294C682.673,337.753 686.58,336.485 686.544,331.884C686.508,325.512 678.362,325.766 673.869,325.766L666.014,325.766L666.014,326.956C668.875,326.956 669.346,327.934 669.346,331.92L669.346,346.117C669.346,350.139 668.875,351.081 666.014,351.081L666.014,352.271L677.528,352.271Z" style="fill:url(#_Linear1);fill-rule:nonzero;"/>
                <path d="M699.113,347.744L695.598,338.401C695.381,337.894 695.127,337.206 695.127,336.662C695.127,335.648 696.54,335.612 697.301,335.612L697.301,334.566L689.12,334.566L689.12,335.612C691.255,335.612 691.617,337.242 692.304,338.908L697.483,351.985C696.975,353.072 696.359,356.223 694.874,356.223C693.969,356.223 693.571,354.811 692.16,354.811C691.11,354.811 690.242,355.571 690.242,356.657C690.242,358.176 691.725,359.044 693.064,359.044C696.287,359.044 697.555,356.078 698.533,353.47L703.75,340.502C704.221,339.234 705.089,336.844 706.138,336.083C706.645,335.648 707.369,335.648 707.984,335.612L707.984,334.566L700.273,334.566L700.273,335.612C701.324,335.612 702.954,335.757 702.954,337.133C702.954,337.858 702.447,339.198 702.193,339.85L699.113,347.744Z" style="fill:url(#_Linear2);fill-rule:nonzero;"/>
                <path d="M724.933,337.826L724.933,331.92C724.933,327.934 725.44,326.956 728.302,326.956L728.302,325.766L717.984,325.766L717.984,326.956C720.845,326.956 721.352,327.934 721.352,331.92L721.352,346.117C721.352,350.139 720.845,351.081 717.984,351.081L717.984,352.271L728.302,352.271L728.302,351.081C725.44,351.081 724.933,350.139 724.933,346.117L724.933,339.487L736.201,339.487L736.201,346.117C736.201,350.139 735.73,351.081 732.867,351.081L732.867,352.271L743.222,352.271L743.222,351.081C740.252,351.081 739.781,350.139 739.781,346.117L739.781,331.92C739.781,327.934 740.252,326.956 743.222,326.956L743.222,325.766L732.867,325.766L732.867,326.956C735.73,326.956 736.201,327.934 736.201,331.92L736.201,337.826L724.933,337.826Z" style="fill:url(#_Linear3);fill-rule:nonzero;"/>
                <path d="M761.547,342.312C761.547,338.04 758.437,334.168 753.908,334.168C748.836,334.168 745.617,338.947 745.617,343.58C745.617,348.544 749.306,352.67 754.379,352.67C757.35,352.67 759.883,350.899 761.403,348.399L760.788,347.819C759.377,349.776 757.278,351.117 754.85,351.117C750.321,351.117 749.27,345.863 749.27,342.312L761.547,342.312ZM749.451,340.94C749.524,338.475 750.792,335.358 753.872,335.358C757.024,335.358 758.111,338.439 757.894,340.94L749.451,340.94Z" style="fill:url(#_Linear4);fill-rule:nonzero;"/>
                <path d="M769.008,338.474C770.095,337.387 771.581,336.083 773.175,336.083C776.038,336.083 776.183,338.8 776.183,340.973L776.183,347.313C776.183,350.718 776.183,350.936 773.683,351.225L773.683,352.271L781.792,352.271L781.792,351.225C779.366,350.936 779.366,350.718 779.366,347.313L779.366,340.285C779.366,338.582 779.329,336.916 778.136,335.577C777.232,334.674 775.966,334.168 774.697,334.168C772.668,334.168 770.385,335.505 769.008,336.988L769.008,333.914L763.471,336.051L763.471,336.916C765.68,336.916 765.717,337.604 765.825,339.524L765.825,347.313C765.825,350.718 765.825,350.936 763.363,351.225L763.363,352.271L771.436,352.271L771.436,351.225C769.008,350.936 769.008,350.718 769.008,347.313L769.008,338.474Z" style="fill:url(#_Linear5);fill-rule:nonzero;"/>
                <path d="M788.927,339.778C789.542,338.763 790.991,337.097 792.259,337.097C793.417,337.098 793.888,338.038 795.156,338.038C796.351,338.038 797.111,337.134 797.111,336.012C797.111,334.746 796.061,333.914 794.866,333.914C792.476,333.914 790.303,336.483 788.927,338.183L788.927,333.914L783.39,336.051L783.39,336.916C785.599,336.916 785.636,337.604 785.744,339.524L785.744,347.313C785.744,350.718 785.744,350.936 783.354,351.225L783.354,352.271L791.353,352.271L791.353,351.225C788.927,350.936 788.927,350.718 788.927,347.313L788.927,339.778Z" style="fill:url(#_Linear6);fill-rule:nonzero;"/>
                <path d="M809.427,347.744L805.912,338.401C805.695,337.894 805.441,337.206 805.441,336.662C805.441,335.648 806.854,335.612 807.615,335.612L807.615,334.566L799.434,334.566L799.434,335.612C801.569,335.612 801.931,337.242 802.618,338.908L807.797,351.985C807.289,353.072 806.673,356.223 805.188,356.223C804.283,356.223 803.885,354.811 802.474,354.811C801.424,354.811 800.556,355.571 800.556,356.657C800.556,358.176 802.039,359.044 803.378,359.044C806.601,359.044 807.869,356.078 808.847,353.47L814.064,340.502C814.535,339.234 815.403,336.844 816.453,336.083C816.959,335.648 817.683,335.648 818.298,335.612L818.298,334.566L810.587,334.566L810.587,335.612C811.638,335.612 813.268,335.757 813.268,337.133C813.268,337.858 812.761,339.198 812.507,339.85L809.427,347.744Z" style="fill:url(#_Linear7);fill-rule:nonzero;"/>
                <path d="M839.848,352.271L846.728,333.004C847.202,331.556 848.143,328.658 849.337,327.68C850.206,326.992 851.074,327.029 852.051,326.956L852.051,325.766L843.038,325.766L843.038,326.956C844.269,327.173 846.08,326.92 846.08,328.695C846.08,329.781 845.247,332.28 844.849,333.366L840.286,346.368L835.215,331.592C834.926,330.795 834.346,329.31 834.346,328.441C834.346,326.884 836.157,326.956 837.352,326.956L837.352,325.766L826.306,325.766L826.306,326.956C827.356,326.956 828.552,326.92 829.457,327.463C830.362,328.079 830.688,329.165 831.195,330.759L838.656,352.271L839.848,352.271Z" style="fill:url(#_Linear8);fill-rule:nonzero;"/>
                <path d="M858.498,333.914L852.961,336.051L852.961,336.916C855.17,336.916 855.207,337.604 855.315,339.524L855.315,347.277C855.315,350.646 855.315,350.899 852.853,351.189L852.853,352.271L860.96,352.271L860.96,351.225C858.498,350.936 858.498,350.718 858.498,347.313L858.498,333.914ZM858.824,327.791C858.824,326.453 857.738,325.367 856.399,325.367C855.061,325.367 854.011,326.453 854.011,327.791C854.011,329.13 855.097,330.179 856.436,330.179C857.738,330.179 858.824,329.094 858.824,327.791Z" style="fill:url(#_Linear9);fill-rule:nonzero;"/>
                <path d="M868.023,338.474C869.11,337.387 870.595,336.083 872.19,336.083C875.053,336.083 875.198,338.8 875.198,340.973L875.198,347.313C875.198,350.718 875.198,350.936 872.697,351.225L872.697,352.271L880.807,352.271L880.807,351.225C878.38,350.936 878.38,350.718 878.38,347.313L878.38,340.285C878.38,338.582 878.344,336.916 877.151,335.577C876.247,334.674 874.98,334.168 873.712,334.168C871.683,334.168 869.4,335.505 868.023,336.988L868.023,333.914L862.486,336.051L862.486,336.916C864.695,336.916 864.731,337.604 864.84,339.524L864.84,347.313C864.84,350.718 864.84,350.936 862.377,351.225L862.377,352.271L870.45,352.271L870.45,351.225C868.023,350.936 868.023,350.718 868.023,347.313L868.023,338.474Z" style="fill:url(#_Linear10);fill-rule:nonzero;"/>
                <path d="M897.828,347.458C896.271,349.161 894.678,350.755 892.215,350.755C888.195,350.755 886.275,346.516 886.275,343.075C886.275,340.285 887,335.358 890.73,335.358C894.207,335.358 893.156,339.778 895.836,339.778C896.887,339.778 897.792,339.017 897.792,337.967C897.792,335.431 893.917,334.168 891.853,334.168C886.275,334.168 882.622,338.51 882.622,343.872C882.622,348.364 885.986,352.67 890.73,352.67C894.026,352.67 896.633,350.61 898.372,347.965L897.828,347.458Z" style="fill:url(#_Linear11);fill-rule:nonzero;"/>
                <path d="M915.864,342.312C915.864,338.04 912.753,334.168 908.225,334.168C903.153,334.168 899.933,338.947 899.933,343.58C899.933,348.544 903.623,352.67 908.696,352.67C911.667,352.67 914.2,350.899 915.719,348.399L915.104,347.819C913.694,349.776 911.595,351.117 909.167,351.117C904.637,351.117 903.587,345.863 903.587,342.312L915.864,342.312ZM903.768,340.94C903.84,338.475 905.109,335.358 908.188,335.358C911.341,335.358 912.428,338.439 912.211,340.94L903.768,340.94Z" style="fill:url(#_Linear12);fill-rule:nonzero;"/>
                <path d="M923.324,338.474C924.412,337.387 925.897,336.083 927.492,336.083C930.355,336.083 930.5,338.8 930.5,340.973L930.5,347.313C930.5,350.718 930.5,350.936 927.999,351.225L927.999,352.271L936.109,352.271L936.109,351.225C933.682,350.936 933.682,350.718 933.682,347.313L933.682,340.285C933.682,338.582 933.646,336.916 932.453,335.577C931.548,334.674 930.282,334.168 929.014,334.168C926.985,334.168 924.701,335.505 923.324,336.988L923.324,333.914L917.788,336.051L917.788,336.916C919.997,336.916 920.033,337.604 920.142,339.524L920.142,347.313C920.142,350.718 920.142,350.936 917.679,351.225L917.679,352.271L925.752,352.271L925.752,351.225C923.324,350.936 923.324,350.718 923.324,347.313L923.324,338.474Z" style="fill:url(#_Linear13);fill-rule:nonzero;"/>
                <path d="M939.88,335.757L939.88,347.494C939.88,350.066 940.35,352.67 943.533,352.67C945.742,352.67 947.553,351.224 948.929,349.668L948.313,348.943C947.408,349.849 946.539,350.755 945.126,350.755C942.881,350.755 943.062,348.364 943.062,346.733L943.062,335.757L948.132,335.757L948.132,334.566L943.062,334.566L943.062,328.228L941.869,328.228C941.543,330.981 939.916,333.769 937.236,334.891L937.236,335.757L939.88,335.757Z" style="fill:url(#_Linear14);fill-rule:nonzero;"/>
            </g>
        </g>
    </g>
    <defs>
        <linearGradient id="_Linear1" x1="0" y1="0" x2="1" y2="0" gradientUnits="userSpaceOnUse" gradientTransform="matrix(282.915,0,0,33.6764,666.014,342.205)"><stop offset="0" style="stop-color:rgb(254,100,74);stop-opacity:1"/><stop offset="1" style="stop-color:rgb(251,193,43);stop-opacity:1"/></linearGradient>
        <linearGradient id="_Linear2" x1="0" y1="0" x2="1" y2="0" gradientUnits="userSpaceOnUse" gradientTransform="matrix(282.915,0,0,33.6764,666.014,342.205)"><stop offset="0" style="stop-color:rgb(254,100,74);stop-opacity:1"/><stop offset="1" style="stop-color:rgb(251,193,43);stop-opacity:1"/></linearGradient>
        <linearGradient id="_Linear3" x1="0" y1="0" x2="1" y2="0" gradientUnits="userSpaceOnUse" gradientTransform="matrix(282.915,0,0,33.6764,666.014,342.205)"><stop offset="0" style="stop-color:rgb(254,100,74);stop-opacity:1"/><stop offset="1" style="stop-color:rgb(251,193,43);stop-opacity:1"/></linearGradient>
        <linearGradient id="_Linear4" x1="0" y1="0" x2="1" y2="0" gradientUnits="userSpaceOnUse" gradientTransform="matrix(282.915,0,0,33.6764,666.014,342.205)"><stop offset="0" style="stop-color:rgb(254,100,74);stop-opacity:1"/><stop offset="1" style="stop-color:rgb(251,193,43);stop-opacity:1"/></linearGradient>
        <linearGradient id="_Linear5" x1="0" y1="0" x2="1" y2="0" gradientUnits="userSpaceOnUse" gradientTransform="matrix(282.915,0,0,33.6764,666.014,342.205)"><stop offset="0" style="stop-color:rgb(254,100,74);stop-opacity:1"/><stop offset="1" style="stop-color:rgb(251,193,43);stop-opacity:1"/></linearGradient>
        <linearGradient id="_Linear6" x1="0" y1="0" x2="1" y2="0" gradientUnits="userSpaceOnUse" gradientTransform="matrix(282.915,0,0,33.6764,666.014,342.205)"><stop offset="0" style="stop-color:rgb(254,100,74);stop-opacity:1"/><stop offset="1" style="stop-color:rgb(251,193,43);stop-opacity:1"/></linearGradient>
        <linearGradient id="_Linear7" x1="0" y1="0" x2="1" y2="0" gradientUnits="userSpaceOnUse" gradientTransform="matrix(282.915,0,0,33.6764,666.014,342.205)"><stop offset="0" style="stop-color:rgb(254,100,74);stop-opacity:1"/><stop offset="1" style="stop-color:rgb(251,193,43);stop-opacity:1"/></linearGradient>
        <linearGradient id="_Linear8" x1="0" y1="0" x2="1" y2="0" gradientUnits="userSpaceOnUse" gradientTransform="matrix(282.915,0,0,33.6764,666.014,342.205)"><stop offset="0" style="stop-color:rgb(254,100,74);stop-opacity:1"/><stop offset="1" style="stop-color:rgb(251,193,43);stop-opacity:1"/></linearGradient>
        <linearGradient id="_Linear9" x1="0" y1="0" x2="1" y2="0" gradientUnits="userSpaceOnUse" gradientTransform="matrix(282.915,0,0,33.6764,666.014,342.205)"><stop offset="0" style="stop-color:rgb(254,100,74);stop-opacity:1"/><stop offset="1" style="stop-color:rgb(251,193,43);stop-opacity:1"/></linearGradient>
        <linearGradient id="_Linear10" x1="0" y1="0" x2="1" y2="0" gradientUnits="userSpaceOnUse" gradientTransform="matrix(282.915,0,0,33.6764,666.014,342.205)"><stop offset="0" style="stop-color:rgb(254,100,74);stop-opacity:1"/><stop offset="1" style="stop-color:rgb(251,193,43);stop-opacity:1"/></linearGradient>
        <linearGradient id="_Linear11" x1="0" y1="0" x2="1" y2="0" gradientUnits="userSpaceOnUse" gradientTransform="matrix(282.915,0,0,33.6764,666.014,342.205)"><stop offset="0" style="stop-color:rgb(254,100,74);stop-opacity:1"/><stop offset="1" style="stop-color:rgb(251,193,43);stop-opacity:1"/></linearGradient>
        <linearGradient id="_Linear12" x1="0" y1="0" x2="1" y2="0" gradientUnits="userSpaceOnUse" gradientTransform="matrix(282.915,0,0,33.6764,666.014,342.205)"><stop offset="0" style="stop-color:rgb(254,100,74);stop-opacity:1"/><stop offset="1" style="stop-color:rgb(251,193,43);stop-opacity:1"/></linearGradient>
        <linearGradient id="_Linear13" x1="0" y1="0" x2="1" y2="0" gradientUnits="userSpaceOnUse" gradientTransform="matrix(282.915,0,0,33.6764,666.014,342.205)"><stop offset="0" style="stop-color:rgb(254,100,74);stop-opacity:1"/><stop offset="1" style="stop-color:rgb(251,193,43);stop-opacity:1"/></linearGradient>
        <linearGradient id="_Linear14" x1="0" y1="0" x2="1" y2="0" gradientUnits="userSpaceOnUse" gradientTransform="matrix(282.915,0,0,33.6764,666.014,342.205)"><stop offset="0" style="stop-color:rgb(254,100,74);stop-opacity:1"/><stop offset="1" style="stop-color:rgb(251,193,43);stop-opacity:1"/></linearGradient>
    </defs>
</svg>
